<svg width="542" height="173" xmlns="http://www.w3.org/2000/svg">
 <g id="Layer_1">
  <title>Layer 1</title>
  <path transform="rotate(13.6677 91.8811 89.6754)" stroke="#000" filter="url(#svg_5_blur)" stroke-width="3" id="svg_5" d="m33.00698,169.97286c4.15038,2.13986 9.81438,7.13601 14.2005,5.30808c2.87702,-1.18315 4.56053,-7.88244 6.34802,-11.40883c13.45523,-26.50836 28.0786,-56.65866 38.72259,-82.45293c0,-1.1508 0.61125,-2.04052 -0.29698,-3.60501c5.95406,-9.69193 9.99579,-20.34052 16.50097,-31.12548c2.06023,-3.42709 4.1562,-8.18293 7.04594,-9.55334l5.33703,-2.22766c6.78478,-1.74475 11.74051,-1.68467 16.47096,2.86553c2.39864,2.32013 3.50217,6.147 5.82233,8.45097c1.56903,1.5737 7.54732,5.44444 9.77043,4.84594c1.72738,-0.46679 3.15093,-2.20689 4.36183,-4.41155l4.21627,-7.79002c1.18195,-2.21609 1.85446,-4.34911 1.30332,-6.05223c-0.70943,-2.19301 -7.22163,-5.08861 -9.40195,-5.54155c-3.1994,-0.68631 -6.99157,0.48995 -10.24991,-0.24956c-6.40351,-1.47205 -9.16625,-5.58544 -11.40777,-12.23622c-15.7985,-9.28751 -37.06796,-15.32589 -61.83276,-7.53585c-6.71776,2.11448 -13.15714,3.71824 -17.57325,8.01424c-0.88508,2.49572 0.86547,2.99261 2.70143,2.96252c-1.4362,1.30801 -3.75631,2.06598 -2.41715,5.13715c15.11439,-6.94195 44.46514,-9.34064 46.45828,4.86909c0.43561,3.16362 -2.39292,7.51965 -4.13191,11.11771c-5.48259,11.35114 -12.18188,20.56008 -17.04052,30.84128c-1.80598,0.10169 -2.21732,1.08842 -3.18097,1.73778c-15.77421,23.01889 -33.02159,51.74108 -47.85639,77.50532c-1.97582,3.42704 -6.65194,8.49256 -6.07076,11.54518c0.87238,4.67036 8.05116,6.84495 12.2004,8.98943l0.00001,0z" fill="#00bfbf"/>
  <path transform="rotate(101.327 76.1531 93.7696)" stroke="#000" id="svg_9" d="m132.50895,23.20596l-20.04034,-11.77508c-5.05624,-2.96797 -11.71872,-1.53949 -14.90467,3.18823l-7.89903,11.7531l38.33802,22.51006l7.90526,-11.74765c3.17386,-4.73335 1.6591,-10.96732 -3.39924,-13.92868l0,0zm-111.06669,104.70774l38.34011,22.50983l62.48802,-92.99327l-38.35836,-22.51571l-62.46978,92.99914l0.00001,0.00001zm-5.85644,28.59958l-0.8468,21.1431l20.0096,-9.89401l18.5946,-9.17809l-36.98793,-21.72969l-0.76947,19.65869l0,0l-0.00001,-0.00001z" opacity="NaN" stroke-width="3" fill="#00bfbf"/>
  <text transform="matrix(1.63769 0 0 1.63769 -179.108 -6.26159)" stroke="#000" xml:space="preserve" text-anchor="start" font-family="'Roboto Mono'" font-size="24" id="svg_13" y="77.57143" x="218.14286" stroke-width="0" fill="#ffffff">Ildjern Studio</text>
 </g>

</svg>