<?xml version="1.0" encoding="UTF-8"?>
<svg xmlns="http://www.w3.org/2000/svg" viewBox="0 0 335.89 148.3">
  <defs>
    <style>
      .cls-1, .cls-2 {
        fill: #008b8b;
      }

      .cls-2 {
        font-family: CascadiaMonoRoman-Bold, 'Cascadia Mono';
        font-size: 33px;
        font-variation-settings: 'wght' 700;
        font-weight: 700;
      }
    </style>
  </defs>
  <g id="text">
    <text class="cls-2" transform="translate(135.51 68.87)"><tspan x="0" y="0">Ildjern </tspan><tspan x="0" y="39.6">Studio</tspan></text>
  </g>
  <g id="brush">
    <path class="cls-1" d="m24.07,128.76l53.45-69.52c.09-.12.2-.24.31-.34l14.32-13.54c.28-.26.5-.58.66-.93.91-2.03,3.21-6.92,5.7-14.13,5.03-14.58,51.47-26.1,41.54-19.49-11.06,7.37-13.06,27.01-15.46,29.52-.08.09-4.34,4.92-7.15,8.1-1.58,1.79-3.57,3.18-5.8,4.04l-8.23,3.21c-.5.36-.87.86-1.06,1.44l-6.3,18.72c-.16.48-.44.9-.81,1.24l-64.3,58.12s-14.5,12.49-6.85-5.64"/>
  </g>
  <g id="hammer">
    <path class="cls-1" d="m112.16,142.07L44.1,58.41l-5.16,1.01c-2.04.4-4.15.17-6.06-.64h0c-2.43-1.04-5.18.56-5.47,3.2l-.16,1.45c-.11.99-.54,1.92-1.22,2.65l-5.34,5.63c-1.01,1.07-2.72,1.06-3.72-.01L.75,54.38c-1.1-1.17-.97-3.04.28-4.05l4.16-3.35c.98-.79,2.28-1.03,3.48-.64l3,.97c1.37.44,2.79-.52,2.89-1.95l1.21-17.44c.1-1.49.76-2.89,1.84-3.92l6.47-6.18c1.07-1.02,2.53-1.52,4-1.36l10.74,1.14c1.1.12,2.2-.17,3.1-.8l2.05-1.42c1.04-.72,1.58-1.97,1.4-3.22l-.51-3.59c-.2-1.39.26-2.79,1.23-3.79l3.95-4.07c.91-.94,2.42-.96,3.36-.04l16.7,16.43c1.46,1.44,1.52,3.77.15,5.28l-5.25,5.77c-.77.85-1.91,1.28-3.05,1.16l-1.62-.18c-2.55-.28-3.53,2.26-3.46,4.83l.23,2c.27,2.33.04,4.69-.67,6.93l-1.15,3.61,78.43,81.12c2.73,2.88,2.33,7.5-.87,9.86l-12.07,10.51c-2.23,1.64-6.85-3.77-8.59-5.92Z"/>
  </g>
</svg>